<svg width="21" height="20" viewBox="0 0 21 20" fill="none" xmlns="http://www.w3.org/2000/svg">
<path d="M12.1668 3.33331H17.1668V8.33331H12.1668V3.33331ZM3.8335 11.6666H8.8335V16.6666H3.8335V11.6666ZM12.1668 14.1666C12.1668 14.8297 12.4302 15.4656 12.8991 15.9344C13.3679 16.4033 14.0038 16.6666 14.6668 16.6666C15.3299 16.6666 15.9658 16.4033 16.4346 15.9344C16.9034 15.4656 17.1668 14.8297 17.1668 14.1666C17.1668 13.5036 16.9034 12.8677 16.4346 12.3989C15.9658 11.93 15.3299 11.6666 14.6668 11.6666C14.0038 11.6666 13.3679 11.93 12.8991 12.3989C12.4302 12.8677 12.1668 13.5036 12.1668 14.1666ZM3.8335 5.83331C3.8335 6.16162 3.89816 6.48671 4.0238 6.79002C4.14943 7.09334 4.33358 7.36893 4.56573 7.60108C4.79788 7.83323 5.07347 8.01738 5.37679 8.14301C5.6801 8.26865 6.00519 8.33331 6.3335 8.33331C6.6618 8.33331 6.98689 8.26865 7.2902 8.14301C7.59352 8.01738 7.86912 7.83323 8.10126 7.60108C8.33341 7.36893 8.51756 7.09334 8.6432 6.79002C8.76883 6.48671 8.8335 6.16162 8.8335 5.83331C8.8335 5.50501 8.76883 5.17992 8.6432 4.8766C8.51756 4.57329 8.33341 4.29769 8.10126 4.06555C7.86912 3.8334 7.59352 3.64925 7.2902 3.52361C6.98689 3.39798 6.6618 3.33331 6.3335 3.33331C6.00519 3.33331 5.6801 3.39798 5.37679 3.52361C5.07347 3.64925 4.79788 3.8334 4.56573 4.06555C4.33358 4.29769 4.14943 4.57329 4.0238 4.8766C3.89816 5.17992 3.8335 5.50501 3.8335 5.83331Z" stroke="#6D7280" stroke-width="1.5" stroke-linecap="round" stroke-linejoin="round"/>
</svg>
