<svg width="16" height="9" viewBox="0 0 16 9" fill="none" xmlns="http://www.w3.org/2000/svg">
<path d="M15.5 8.3709C15.5 8.20514 15.4342 8.04617 15.3169 7.92896C15.1997 7.81175 15.0408 7.7459 14.875 7.7459H11.125C10.9592 7.7459 10.8003 7.81175 10.6831 7.92896C10.5658 8.04617 10.5 8.20514 10.5 8.3709C10.5 8.53666 10.5658 8.69563 10.6831 8.81285C10.8003 8.93006 10.9592 8.9959 11.125 8.9959H14.875C15.0408 8.9959 15.1997 8.93006 15.3169 8.81285C15.4342 8.69563 15.5 8.53666 15.5 8.3709ZM15.5 4.6209C15.5 4.45514 15.4342 4.29617 15.3169 4.17896C15.1997 4.06175 15.0408 3.9959 14.875 3.9959H6.125C5.95924 3.9959 5.80027 4.06175 5.68306 4.17896C5.56585 4.29617 5.5 4.45514 5.5 4.6209C5.5 4.78666 5.56585 4.94563 5.68306 5.06284C5.80027 5.18005 5.95924 5.2459 6.125 5.2459H14.875C15.0408 5.2459 15.1997 5.18005 15.3169 5.06284C15.4342 4.94563 15.5 4.78666 15.5 4.6209ZM15.5 0.870903C15.5 0.705143 15.4342 0.546172 15.3169 0.428961C15.1997 0.311751 15.0408 0.245903 14.875 0.245903H1.125C0.95924 0.245903 0.800268 0.311751 0.683058 0.428961C0.565847 0.546172 0.5 0.705143 0.5 0.870903C0.5 1.03666 0.565847 1.19563 0.683058 1.31284C0.800268 1.43005 0.95924 1.4959 1.125 1.4959H14.875C15.0408 1.4959 15.1997 1.43005 15.3169 1.31284C15.4342 1.19563 15.5 1.03666 15.5 0.870903Z" fill="#27348B"/>
</svg>
