<svg width="10" height="10" viewBox="0 0 10 10" fill="none" xmlns="http://www.w3.org/2000/svg">
<path d="M5.00005 7.72222C4.88987 7.72222 4.79757 7.68488 4.72317 7.61022C4.6485 7.53581 4.61117 7.44351 4.61117 7.33333V5.38888H2.66672C2.55654 5.38888 2.46411 5.35155 2.38944 5.27688C2.31504 5.20247 2.27783 5.11018 2.27783 4.99999C2.27783 4.88981 2.31504 4.79738 2.38944 4.72272C2.46411 4.64831 2.55654 4.6111 2.66672 4.6111H4.61117V2.66666C4.61117 2.55647 4.6485 2.46405 4.72317 2.38938C4.79757 2.31497 4.88987 2.27777 5.00005 2.27777C5.11024 2.27777 5.20267 2.31497 5.27733 2.38938C5.35174 2.46405 5.38894 2.55647 5.38894 2.66666V4.6111H7.33339C7.44357 4.6111 7.53587 4.64831 7.61028 4.72272C7.68494 4.79738 7.72228 4.88981 7.72228 4.99999C7.72228 5.11018 7.68494 5.20247 7.61028 5.27688C7.53587 5.35155 7.44357 5.38888 7.33339 5.38888H5.38894V7.33333C5.38894 7.44351 5.35174 7.53581 5.27733 7.61022C5.20267 7.68488 5.11024 7.72222 5.00005 7.72222Z" fill="#27348B"/>
</svg>
