<svg width="20" height="20" viewBox="0 0 20 20" fill="none" xmlns="http://www.w3.org/2000/svg">
<path d="M12.604 17.5834L5.58317 10.5834C5.49984 10.5 5.44095 10.4097 5.4065 10.3125C5.3715 10.2153 5.354 10.1111 5.354 10C5.354 9.88891 5.3715 9.78474 5.4065 9.68752C5.44095 9.5903 5.49984 9.50002 5.58317 9.41669L12.604 2.39585C12.7984 2.20141 13.0415 2.10419 13.3332 2.10419C13.6248 2.10419 13.8748 2.20835 14.0832 2.41669C14.2915 2.62502 14.3957 2.86808 14.3957 3.14585C14.3957 3.42363 14.2915 3.66669 14.0832 3.87502L7.95817 10L14.0832 16.125C14.2776 16.3195 14.3748 16.5589 14.3748 16.8434C14.3748 17.1284 14.2707 17.375 14.0623 17.5834C13.854 17.7917 13.6109 17.8959 13.3332 17.8959C13.0554 17.8959 12.8123 17.7917 12.604 17.5834Z" fill="#374151"/>
</svg>
