<svg width="12" height="7" viewBox="0 0 12 7" fill="none" xmlns="http://www.w3.org/2000/svg">
<path d="M5.99984 6.33331C5.87228 6.33331 5.74888 6.31041 5.62961 6.26461C5.50971 6.21881 5.4099 6.15774 5.33018 6.0814L0.929583 1.86766C0.754197 1.69973 0.666504 1.48598 0.666504 1.22644C0.666504 0.9669 0.754197 0.75316 0.929583 0.585221C1.10497 0.417282 1.32819 0.333313 1.59924 0.333313C1.87029 0.333313 2.09351 0.417282 2.2689 0.585221L5.99984 4.15774L9.73078 0.585221C9.90616 0.417282 10.1294 0.333313 10.4004 0.333313C10.6715 0.333313 10.8947 0.417282 11.0701 0.585221C11.2455 0.75316 11.3332 0.9669 11.3332 1.22644C11.3332 1.48598 11.2455 1.69973 11.0701 1.86766L6.66949 6.0814C6.57383 6.17301 6.47019 6.23774 6.35858 6.2756C6.24697 6.31408 6.12739 6.33331 5.99984 6.33331Z" fill="#374151"/>
</svg>
