<svg width="10" height="10" viewBox="0 0 10 10" fill="none" xmlns="http://www.w3.org/2000/svg">
<path d="M4.97741 8.11107C4.81665 8.11169 4.6622 8.04623 4.54783 7.929L2.03384 5.32034C1.84814 5.1271 1.70226 4.8967 1.60506 4.64313C1.50787 4.38956 1.4614 4.11813 1.46848 3.84534C1.47555 3.57255 1.53602 3.30411 1.64622 3.05633C1.75641 2.80855 1.91402 2.58662 2.10947 2.40403C2.29781 2.22956 2.51812 2.09628 2.75722 2.01214C2.99632 1.92799 3.24932 1.89473 3.50109 1.91432C4.00443 1.94892 4.47853 2.17203 4.83523 2.54216L4.97741 2.6897L5.18011 2.47623C5.36632 2.28354 5.58837 2.13217 5.83273 2.03132C6.0771 1.93046 6.33868 1.88224 6.60157 1.88958C6.86446 1.89692 7.12316 1.95967 7.36195 2.07402C7.60073 2.18836 7.81461 2.35191 7.99057 2.55471C8.15871 2.75015 8.28716 2.97875 8.36825 3.22686C8.44933 3.47497 8.48139 3.73749 8.46251 3.99874C8.42916 4.52103 8.21415 5.01299 7.85746 5.38312L5.40398 7.929C5.348 7.98709 5.28148 8.03309 5.20826 8.06435C5.13504 8.0956 5.05658 8.11148 4.97741 8.11107ZM3.37403 2.66459C3.08819 2.66051 2.81109 2.7668 2.59653 2.96281C2.47389 3.0767 2.37492 3.21536 2.30569 3.3703C2.23646 3.52524 2.19841 3.69321 2.19388 3.86393C2.18935 4.03465 2.21843 4.20453 2.27934 4.36319C2.34025 4.52185 2.43171 4.66595 2.54813 4.78667L4.97741 7.30744L7.34317 4.8526C7.82418 4.35033 7.87259 3.5467 7.45208 3.06012C7.34232 2.93286 7.20869 2.83017 7.05937 2.75833C6.91006 2.68649 6.74819 2.64701 6.58366 2.64231C6.41914 2.63761 6.25542 2.66778 6.10251 2.73098C5.94961 2.79419 5.81074 2.88909 5.6944 3.0099L5.23456 3.48705C5.20083 3.52217 5.16076 3.55003 5.11663 3.56905C5.0725 3.58806 5.02519 3.59785 4.97741 3.59785C4.92963 3.59785 4.88232 3.58806 4.8382 3.56905C4.79407 3.55003 4.75399 3.52217 4.72027 3.48705L4.32093 3.07582C4.19698 2.94593 4.04952 2.84273 3.88702 2.77216C3.72452 2.70159 3.55018 2.66503 3.37403 2.66459Z" fill="#27348B"/>
</svg>
