<svg width="16" height="16" viewBox="0 0 16 16" fill="none" xmlns="http://www.w3.org/2000/svg">
<path d="M14.2375 3.28748L8.23754 1.28748C8.08318 1.23734 7.9169 1.23734 7.76254 1.28748L1.77504 3.28123H1.76254L1.73129 3.29373L1.69379 3.31248L1.65004 3.33123L1.62504 3.34373L1.58754 3.36873L1.56879 3.38123L1.53129 3.40623C1.53129 3.40955 1.52997 3.41273 1.52763 3.41507C1.52528 3.41742 1.52211 3.41873 1.51879 3.41873L1.47504 3.45623C1.47504 3.45789 1.47438 3.45948 1.47321 3.46065C1.47204 3.46183 1.47045 3.46248 1.46879 3.46248L1.42504 3.51248L1.41254 3.53123C1.40601 3.53542 1.40042 3.54092 1.39612 3.54737C1.39182 3.55382 1.3889 3.5611 1.38754 3.56873L1.36879 3.58748L1.35004 3.61873C1.34379 3.63123 1.33754 3.63748 1.33754 3.64373L1.31879 3.68123L1.30629 3.70623L1.28754 3.76248C1.28331 3.77013 1.28115 3.77875 1.28129 3.78748C1.27434 3.80113 1.2701 3.81598 1.26879 3.83123C1.26879 3.83748 1.26254 3.84998 1.26254 3.85623C1.26254 3.86248 1.25629 3.88748 1.25629 3.89998V3.92498C1.25053 3.94954 1.24842 3.97481 1.25004 3.99998V8.99998C1.25004 9.1989 1.32906 9.38966 1.46971 9.53031C1.61036 9.67097 1.80113 9.74998 2.00004 9.74998C2.19895 9.74998 2.38972 9.67097 2.53037 9.53031C2.67102 9.38966 2.75004 9.1989 2.75004 8.99998V5.03748L4.23129 5.53748C3.77398 6.41354 3.63675 7.42173 3.84326 8.38815C4.04978 9.35457 4.5871 10.2186 5.36254 10.8312C4.30157 11.3248 3.40066 12.1066 2.76254 13.0875C2.70837 13.17 2.67098 13.2623 2.6525 13.3593C2.63402 13.4562 2.63481 13.5558 2.65483 13.6525C2.67485 13.7491 2.71371 13.8408 2.76919 13.9224C2.82467 14.0041 2.89568 14.0739 2.97817 14.1281C3.06065 14.1823 3.153 14.2197 3.24994 14.2382C3.34688 14.2566 3.4465 14.2558 3.54314 14.2358C3.63977 14.2158 3.73151 14.1769 3.81312 14.1215C3.89473 14.066 3.96462 13.995 4.01879 13.9125C4.44915 13.2482 5.03888 12.7022 5.73425 12.3241C6.42963 11.9461 7.20854 11.748 8.00004 11.748C8.79154 11.748 9.57045 11.9461 10.2658 12.3241C10.9612 12.7022 11.5509 13.2482 11.9813 13.9125C12.0505 14.0165 12.1443 14.1018 12.2545 14.1606C12.3646 14.2195 12.4876 14.2502 12.6125 14.25C12.7565 14.2502 12.8976 14.209 13.0188 14.1312C13.1857 14.0215 13.3025 13.85 13.3435 13.6545C13.3844 13.4589 13.3464 13.2551 13.2375 13.0875C12.5994 12.1066 11.6985 11.3248 10.6375 10.8312C11.413 10.2186 11.9503 9.35457 12.1568 8.38815C12.3633 7.42173 12.2261 6.41354 11.7688 5.53748L14.2375 4.71248C14.3876 4.66317 14.5182 4.56773 14.6109 4.43979C14.7035 4.31185 14.7534 4.15793 14.7534 3.99998C14.7534 3.84204 14.7035 3.68812 14.6109 3.56018C14.5182 3.43224 14.3876 3.3368 14.2375 3.28748ZM8.00004 2.78748L11.6313 3.99998L10.3313 4.43123L8.00004 5.21248L5.66879 4.43123L4.36879 3.99998L8.00004 2.78748ZM10.75 7.49998C10.7496 7.9268 10.6498 8.34765 10.4586 8.72923C10.2674 9.11081 9.99 9.44265 9.64836 9.69847C9.30671 9.9543 8.91021 10.1271 8.49024 10.2032C8.07026 10.2792 7.63834 10.2565 7.22867 10.1368C6.81899 10.0171 6.4428 9.80365 6.12988 9.5134C5.81696 9.22314 5.5759 8.86403 5.42577 8.4645C5.27565 8.06496 5.22058 7.63597 5.26493 7.21147C5.30928 6.78696 5.45182 6.37861 5.68129 6.01873L7.76254 6.71248C7.9169 6.76263 8.08318 6.76263 8.23754 6.71248L10.3188 6.01873C10.6019 6.46078 10.7516 6.97505 10.75 7.49998Z" fill="#374151"/>
</svg>
