<svg width="8" height="8" viewBox="0 0 8 8" fill="none" xmlns="http://www.w3.org/2000/svg">
<path d="M5.94452 0.500732C6.13689 0.500768 6.32626 0.548402 6.49575 0.639388C6.66524 0.730373 6.80958 0.861884 6.91591 1.02219C7.02224 1.18251 7.08725 1.36664 7.10514 1.55817C7.12303 1.7497 7.09326 1.94269 7.01846 2.11992C6.94367 2.29715 6.82619 2.45313 6.67648 2.57393C6.52678 2.69474 6.34951 2.77663 6.16048 2.81229C5.97145 2.84796 5.77653 2.8363 5.59309 2.77835C5.40966 2.72041 5.24342 2.61797 5.10919 2.48018L2.98702 3.69351C3.04167 3.89428 3.04167 4.10602 2.98702 4.30679L5.10958 5.51973C5.30767 5.31662 5.57302 5.19272 5.85592 5.17123C6.13881 5.14974 6.41984 5.23214 6.64634 5.40299C6.87284 5.57385 7.02926 5.82143 7.08631 6.09935C7.14335 6.37727 7.0971 6.66645 6.95622 6.91271C6.81533 7.15897 6.58949 7.34541 6.321 7.4371C6.05251 7.52878 5.7598 7.51942 5.49772 7.41077C5.23564 7.30211 5.02217 7.10162 4.89731 6.84686C4.77245 6.5921 4.74478 6.30055 4.81946 6.02684L2.6973 4.81351C2.53548 4.97961 2.32782 5.09369 2.10084 5.14116C1.87386 5.18862 1.63788 5.16733 1.42306 5.07999C1.20825 4.99265 1.02436 4.84324 0.8949 4.65085C0.765439 4.45847 0.696289 4.23184 0.696289 3.99995C0.696289 3.76807 0.765439 3.54144 0.8949 3.34906C1.02436 3.15667 1.20825 3.00726 1.42306 2.91992C1.63788 2.83258 1.87386 2.81129 2.10084 2.85875C2.32782 2.90622 2.53548 3.0203 2.6973 3.1864L4.81946 1.97307C4.77258 1.80015 4.76616 1.61875 4.80069 1.44295C4.83521 1.26715 4.90977 1.10166 5.01856 0.959314C5.12736 0.81697 5.26748 0.701596 5.42806 0.622137C5.58864 0.542678 5.76536 0.50088 5.94452 0.500732Z" fill="#27348B"/>
</svg>
