<svg width="14" height="14" viewBox="0 0 14 14" fill="none" xmlns="http://www.w3.org/2000/svg">
<path d="M6.94484 11.5035L3.71333 13.5418C3.57058 13.637 3.42133 13.6777 3.26559 13.6641C3.10986 13.6505 2.97359 13.5962 2.85679 13.5011C2.73999 13.4059 2.64914 13.2872 2.58425 13.1448C2.51936 13.0018 2.50639 12.842 2.54532 12.6653L3.40186 8.81287L0.540228 6.22417C0.410449 6.10186 0.329466 5.96244 0.297281 5.8059C0.264576 5.64989 0.27418 5.49716 0.326092 5.34768C0.378004 5.1982 0.455871 5.0759 0.559695 4.98077C0.663518 4.88565 0.806275 4.8245 0.987967 4.79732L4.76455 4.4508L6.22456 0.822547C6.28945 0.659479 6.39016 0.537178 6.52669 0.455644C6.6627 0.374111 6.80208 0.333344 6.94484 0.333344C7.0876 0.333344 7.22724 0.374111 7.36377 0.455644C7.49978 0.537178 7.60023 0.659479 7.66512 0.822547L9.12513 4.4508L12.9017 4.79732C13.0834 4.8245 13.2262 4.88565 13.33 4.98077C13.4338 5.0759 13.5117 5.1982 13.5636 5.34768C13.6155 5.49716 13.6254 5.64989 13.5932 5.8059C13.5605 5.96244 13.4792 6.10186 13.3495 6.22417L10.4878 8.81287L11.3444 12.6653C11.3833 12.842 11.3703 13.0018 11.3054 13.1448C11.2405 13.2872 11.1497 13.4059 11.0329 13.5011C10.9161 13.5962 10.7798 13.6505 10.6241 13.6641C10.4684 13.6777 10.3191 13.637 10.1763 13.5418L6.94484 11.5035Z" fill="#FFCC00"/>
</svg>
