<svg width="25" height="24" viewBox="0 0 25 24" fill="none" xmlns="http://www.w3.org/2000/svg">
<g clip-path="url(#clip0_50_433)">
<path d="M18.8 4C19.5161 4 20.2028 4.28654 20.7092 4.79657C21.2155 5.30661 21.5 5.99837 21.5 6.71967V15.7853C21.5 16.5066 21.2155 17.1983 20.7092 17.7084C20.2028 18.2184 19.5161 18.5049 18.8 18.5049H8.2997L5.3 20.7713C4.5584 21.3316 3.5 20.7985 3.5 19.8648V6.71967C3.5 5.99837 3.78446 5.30661 4.29081 4.79657C4.79716 4.28654 5.48392 4 6.2 4H18.8ZM18.8 5.81312H6.2C5.96131 5.81312 5.73239 5.90863 5.5636 6.07864C5.39482 6.24865 5.3 6.47924 5.3 6.71967V18.5049L7.2197 17.0544C7.53127 16.8191 7.91023 16.6918 8.2997 16.6918H18.8C19.0387 16.6918 19.2676 16.5963 19.4364 16.4263C19.6052 16.2563 19.7 16.0257 19.7 15.7853V6.71967C19.7 6.47924 19.6052 6.24865 19.4364 6.07864C19.2676 5.90863 19.0387 5.81312 18.8 5.81312ZM11.6 12.159C11.8294 12.1593 12.05 12.2478 12.2168 12.4064C12.3836 12.565 12.484 12.7818 12.4975 13.0125C12.5109 13.2431 12.4364 13.4703 12.2892 13.6474C12.1419 13.8246 11.9331 13.9385 11.7053 13.9658L11.6 13.9721H8.9C8.67061 13.9719 8.44997 13.8834 8.28317 13.7248C8.11637 13.5662 8.01599 13.3494 8.00255 13.1187C7.9891 12.888 8.06361 12.6609 8.21084 12.4837C8.35807 12.3065 8.56691 12.1927 8.7947 12.1654L8.9 12.159H11.6ZM16.1 8.53279C16.3387 8.53279 16.5676 8.6283 16.7364 8.79832C16.9052 8.96833 17 9.19891 17 9.43935C17 9.67978 16.9052 9.91037 16.7364 10.0804C16.5676 10.2504 16.3387 10.3459 16.1 10.3459H8.9C8.6613 10.3459 8.43239 10.2504 8.2636 10.0804C8.09482 9.91037 8 9.67978 8 9.43935C8 9.19891 8.09482 8.96833 8.2636 8.79832C8.43239 8.6283 8.6613 8.53279 8.9 8.53279H16.1Z" fill="#9CA3AF"/>
</g>
<defs>
<clipPath id="clip0_50_433">
<rect width="24" height="24" fill="white" transform="translate(0.5)"/>
</clipPath>
</defs>
</svg>
