<svg width="20" height="20" viewBox="0 0 20 20" fill="none" xmlns="http://www.w3.org/2000/svg">
<path d="M10.0002 10C10.4585 10 10.851 9.83669 11.1777 9.51002C11.5038 9.18391 11.6668 8.79169 11.6668 8.33335C11.6668 7.87502 11.5038 7.48252 11.1777 7.15585C10.851 6.82974 10.4585 6.66669 10.0002 6.66669C9.54183 6.66669 9.14961 6.82974 8.8235 7.15585C8.49683 7.48252 8.3335 7.87502 8.3335 8.33335C8.3335 8.79169 8.49683 9.18391 8.8235 9.51002C9.14961 9.83669 9.54183 10 10.0002 10ZM10.0002 18.0209C9.88905 18.0209 9.77794 18 9.66683 17.9584C9.55572 17.9167 9.4585 17.8611 9.37516 17.7917C7.34738 16 5.8335 14.337 4.8335 12.8025C3.8335 11.2675 3.3335 9.83335 3.3335 8.50002C3.3335 6.41669 4.00377 4.75696 5.34433 3.52085C6.68433 2.28474 8.23627 1.66669 10.0002 1.66669C11.7641 1.66669 13.316 2.28474 14.656 3.52085C15.9966 4.75696 16.6668 6.41669 16.6668 8.50002C16.6668 9.83335 16.1668 11.2675 15.1668 12.8025C14.1668 14.337 12.6529 16 10.6252 17.7917C10.5418 17.8611 10.4446 17.9167 10.3335 17.9584C10.2224 18 10.1113 18.0209 10.0002 18.0209Z" fill="#6D7280"/>
</svg>
