<svg width="16" height="15" viewBox="0 0 16 15" fill="none" xmlns="http://www.w3.org/2000/svg">
<path d="M10.724 1.8384L12.776 1.15365C13.0015 1.07854 13.2416 1.0581 13.4766 1.094C13.7115 1.1299 13.9346 1.22112 14.1274 1.36014C14.3201 1.49916 14.4771 1.682 14.5854 1.89359C14.6936 2.10518 14.7501 2.33947 14.75 2.57715V11.4144C14.7501 11.7293 14.651 12.0363 14.4669 12.2918C14.2827 12.5473 14.0228 12.7384 13.724 12.8379L10.724 13.8376C10.4163 13.9401 10.0837 13.9401 9.776 13.8376L6.224 12.6541C5.91631 12.5517 5.58369 12.5517 5.276 12.6541L3.224 13.3381C2.99844 13.4133 2.75825 13.4337 2.52325 13.3978C2.28824 13.3618 2.06514 13.2705 1.87234 13.1314C1.67954 12.9923 1.52257 12.8094 1.41436 12.5977C1.30616 12.386 1.24982 12.1516 1.25 11.9139V3.0774C1.24987 2.76255 1.34882 2.45563 1.53283 2.20015C1.71684 1.94466 1.97658 1.75355 2.27525 1.6539L5.27525 0.65415C5.58317 0.551502 5.91608 0.551502 6.224 0.65415L9.77675 1.83765C10.0844 1.94013 10.4171 1.94013 10.7248 1.83765L10.724 1.8384Z" stroke="#27348B" stroke-linecap="round" stroke-linejoin="round"/>
<path d="M10.25 1.9959V13.9959M5.75 0.495903V12.4959" stroke="#27348B" stroke-linejoin="round"/>
</svg>
