<svg width="24" height="24" viewBox="0 0 24 24" fill="none" xmlns="http://www.w3.org/2000/svg">
<path d="M11.31 15.498C11.4814 14.9696 11.72 14.4655 12.02 13.998H6.25C5.65326 13.998 5.08097 14.2351 4.65901 14.657C4.23705 15.079 4 15.6513 4 16.248V16.825C4 17.718 4.319 18.582 4.898 19.261C6.311 20.915 8.389 21.813 11.09 21.974L11.541 20.494C9.039 20.414 7.222 19.672 6.039 18.287C5.69094 17.8794 5.4998 17.361 5.5 16.825V16.247C5.50027 16.0483 5.5794 15.8578 5.72002 15.7173C5.86065 15.5769 6.05126 15.498 6.25 15.498H11.31ZM11.999 2C13.3253 2 14.5974 2.52689 15.5352 3.46476C16.4731 4.40263 17 5.67465 17 7.001C17 8.32735 16.4731 9.59937 15.5352 10.5372C14.5974 11.4751 13.3253 12.002 11.999 12.002C10.6727 12.002 9.40063 11.4751 8.46276 10.5372C7.52489 9.59937 6.998 8.32735 6.998 7.001C6.998 5.67465 7.52489 4.40263 8.46276 3.46476C9.40063 2.52689 10.6727 2 11.999 2ZM11.999 3.5C11.5392 3.5 11.084 3.59056 10.6592 3.7665C10.2345 3.94244 9.84852 4.20032 9.52342 4.52542C9.19832 4.85052 8.94044 5.23646 8.7645 5.66123C8.58856 6.08599 8.498 6.54124 8.498 7.001C8.498 7.46076 8.58856 7.91601 8.7645 8.34077C8.94044 8.76554 9.19832 9.15148 9.52342 9.47658C9.84852 9.80168 10.2345 10.0596 10.6592 10.2355C11.084 10.4114 11.5392 10.502 11.999 10.502C12.9275 10.502 13.818 10.1331 14.4746 9.47658C15.1311 8.82002 15.5 7.92952 15.5 7.001C15.5 6.07248 15.1311 5.18198 14.4746 4.52542C13.818 3.86885 12.9275 3.5 11.999 3.5ZM23 17.5C23.0003 18.4576 22.7506 19.3988 22.2756 20.2303C21.8006 21.0619 21.1168 21.755 20.2917 22.2411C19.4666 22.7273 18.529 22.9897 17.5714 23.0023C16.6138 23.0149 15.6696 22.7773 14.832 22.313L12.645 22.978C12.5583 23.0044 12.466 23.0068 12.3781 22.9848C12.2902 22.9628 12.2098 22.9173 12.1457 22.8533C12.0817 22.7892 12.0362 22.7088 12.0142 22.6209C11.9922 22.533 11.9946 22.4407 12.021 22.354L12.687 20.167C12.2802 19.4326 12.0469 18.6149 12.0049 17.7764C11.9629 16.9379 12.1134 16.101 12.4448 15.3296C12.7763 14.5583 13.2799 13.873 13.917 13.3264C14.5542 12.7797 15.308 12.3862 16.1208 12.1758C16.9335 11.9655 17.7836 11.9439 18.606 12.1129C19.4283 12.2818 20.2011 12.6367 20.8651 13.1505C21.5291 13.6642 22.0667 14.3231 22.4368 15.0766C22.8068 15.8302 22.9995 16.6585 23 17.498V17.5ZM15.498 16C15.3654 16 15.2382 16.0527 15.1444 16.1464C15.0507 16.2402 14.998 16.3674 14.998 16.5C14.998 16.6326 15.0507 16.7598 15.1444 16.8536C15.2382 16.9473 15.3654 17 15.498 17H19.5C19.6326 17 19.7598 16.9473 19.8536 16.8536C19.9473 16.7598 20 16.6326 20 16.5C20 16.3674 19.9473 16.2402 19.8536 16.1464C19.7598 16.0527 19.6326 16 19.5 16H15.5H15.498ZM14.998 18.5C14.998 18.6326 15.0507 18.7598 15.1444 18.8536C15.2382 18.9473 15.3654 19 15.498 19H17.498C17.6306 19 17.7578 18.9473 17.8516 18.8536C17.9453 18.7598 17.998 18.6326 17.998 18.5C17.998 18.3674 17.9453 18.2402 17.8516 18.1464C17.7578 18.0527 17.6306 18 17.498 18H15.498C15.3654 18 15.2382 18.0527 15.1444 18.1464C15.0507 18.2402 14.998 18.3674 14.998 18.5Z" fill="#9CA3AF"/>
</svg>
