<svg width="16" height="17" viewBox="0 0 16 17" fill="none" xmlns="http://www.w3.org/2000/svg">
<path fill-rule="evenodd" clip-rule="evenodd" d="M5.54467 1.86232C4.98526 1.96942 4.57776 2.18267 4.15701 2.58855C3.82433 2.90947 3.57697 3.29476 3.47114 3.65692C3.39402 3.92079 3.39649 3.92509 3.63727 3.94766C3.88017 3.97042 4.30215 3.94602 4.61795 3.89091C5.18581 3.79184 5.75912 3.55145 6.16227 3.24337C6.54281 2.95255 6.5525 2.94667 6.65006 2.94667C6.78515 2.94667 6.83443 2.98224 6.96408 3.17328C7.15696 3.45753 7.4197 3.69502 7.68915 3.82863C7.92638 3.94629 7.92676 3.94637 8.23432 3.94637C8.40358 3.94637 8.5499 3.93857 8.55945 3.92906C8.59619 3.89242 8.48581 3.53228 8.36783 3.30371C8.02326 2.63621 7.35162 2.09149 6.6442 1.90579C6.35994 1.83116 5.81913 1.80979 5.54467 1.86232ZM6.40519 3.79445C5.7108 4.29036 4.78929 4.5514 3.80596 4.53078L3.36605 4.52155L3.37938 4.75471C3.39629 5.05112 3.53257 5.46116 3.71839 5.77477C3.89952 6.08046 4.32142 6.5062 4.62893 6.69357C5.22539 7.057 5.98266 7.17209 6.6442 6.99989C7.65521 6.73671 8.48116 5.81131 8.6035 4.80478C8.61959 4.67222 8.626 4.55277 8.61773 4.53935C8.60919 4.52552 8.55214 4.52478 8.48576 4.53763C7.92446 4.64622 7.18504 4.33982 6.71264 3.80285L6.58945 3.66284L6.40519 3.79445ZM3.00336 8.31296C2.71869 8.38538 2.53588 8.46683 2.28773 8.63188C1.94787 8.8579 1.69983 9.14959 1.52482 9.52899C1.33314 9.94454 1.3335 9.94117 1.3335 11.36C1.3335 12.6142 1.33459 12.6398 1.39076 12.7157C1.42227 12.7583 1.48877 12.8208 1.53853 12.8547L1.62903 12.9164H4.38603H7.14305L7.15803 12.3891C7.17571 11.7667 7.21831 11.5664 7.4133 11.1887C7.56753 10.8899 7.85729 10.5683 8.14434 10.3774C8.34412 10.2445 8.72066 10.0876 8.91631 10.0557C9.02252 10.0384 9.02895 10.031 9.13071 9.80935C9.26438 9.51823 9.52556 9.19235 9.77897 9.0006L9.97686 8.85083L9.88458 8.77165C9.62904 8.55237 9.31937 8.39666 8.97418 8.31384C8.76139 8.26281 8.63511 8.26065 5.97352 8.2624C3.40322 8.26407 3.18061 8.26788 3.00336 8.31296ZM10.8325 9.74953C10.5272 9.84832 10.3109 10.0351 10.1784 10.3144C10.101 10.4774 10.0931 10.5206 10.084 10.8279L10.0741 11.1634H9.69742C9.49022 11.1634 9.25436 11.176 9.17325 11.1912C9.00158 11.2236 8.76594 11.336 8.68184 11.4256L8.62312 11.4881L8.74234 11.5488C8.8079 11.5822 9.53038 11.9589 10.3478 12.386L11.8341 13.1624L13.4138 12.338C14.2826 11.8846 15.0036 11.5042 15.016 11.4927C15.0513 11.4599 14.8444 11.3052 14.6787 11.2406C14.5518 11.1911 14.4543 11.18 14.0591 11.1696L13.5901 11.1574L13.579 10.8249C13.569 10.5235 13.5601 10.4757 13.4842 10.3144C13.3757 10.0837 13.2128 9.91953 12.9858 9.81192L12.8035 9.72551L11.8728 9.71981C11.1731 9.71554 10.9149 9.72291 10.8325 9.74953ZM12.6576 10.6336C12.699 10.671 12.7077 10.7213 12.7077 10.9212V11.1634H11.8317H10.9557V10.926C10.9557 10.5648 10.8951 10.5883 11.827 10.5883C12.5149 10.5883 12.6135 10.5936 12.6576 10.6336ZM8.33364 13.7038L8.34144 15.0664L8.42616 15.2444C8.5338 15.4707 8.70385 15.6408 8.93 15.7485L9.10793 15.8333H11.8317H14.5555L14.7378 15.7469C14.9642 15.6396 15.127 15.4757 15.2372 15.2444L15.322 15.0664L15.3301 13.7004C15.3377 12.3961 15.3359 12.3352 15.289 12.3532C15.262 12.3635 14.5069 12.756 13.6111 13.2254C12.0433 14.0468 11.9766 14.0787 11.8317 14.0781C11.6877 14.0774 11.6088 14.0395 10.025 13.2094C9.11409 12.7321 8.35915 12.3414 8.34732 12.3413C8.3355 12.3413 8.32934 12.9543 8.33364 13.7038Z" fill="white"/>
</svg>
