<svg width="25" height="24" viewBox="0 0 25 24" fill="none" xmlns="http://www.w3.org/2000/svg">
<path d="M20.117 6.57895C20.639 6.57895 21.062 6.75789 21.395 7.10684C21.737 7.47368 21.917 7.87632 21.917 8.36842V18.2105C21.917 18.7026 21.737 19.1053 21.395 19.4721C21.062 19.8211 20.639 20 20.117 20H5.71699C5.19499 20 4.77199 19.8211 4.43899 19.4721C4.09699 19.1053 3.91699 18.7026 3.91699 18.2105V8.36842C3.91699 7.87632 4.09699 7.47368 4.43899 7.10684C4.77199 6.75789 5.19499 6.57895 5.71699 6.57895H9.31699V4.78947C9.31699 4.27053 9.49699 3.85 9.83899 3.51895C10.172 3.17895 10.595 3 11.117 3H14.717C15.239 3 15.662 3.17895 15.995 3.51895C16.337 3.85 16.517 4.27053 16.517 4.78947V6.57895H20.117ZM5.71699 8.36842V18.2105H20.117V8.36842H5.71699ZM14.717 6.57895V4.78947H11.117V6.57895H14.717ZM12.917 9.26316C13.4541 9.26316 13.9691 9.47526 14.3489 9.8528C14.7286 10.2303 14.942 10.7424 14.942 11.2763C14.942 12.3947 14.033 13.2895 12.917 13.2895C12.3799 13.2895 11.8649 13.0774 11.4851 12.6998C11.1053 12.3223 10.892 11.8102 10.892 11.2763C10.892 10.1579 11.801 9.26316 12.917 9.26316ZM16.967 17.3158H8.86699V16.3137C8.86699 15.1953 10.667 14.3005 12.917 14.3005C15.167 14.3005 16.967 15.1953 16.967 16.3137V17.3158Z" fill="#9CA3AF"/>
</svg>
